<svg width="54" height="57" viewBox="0 0 54 57" fill="none" xmlns="http://www.w3.org/2000/svg">
<path d="M40.1479 38.4426C42.0356 37.2029 44.515 38.5553 44.515 40.8093V44.4439C44.515 48.0222 41.7257 51.854 38.3729 52.981L29.385 55.9676C27.8072 56.5029 25.2432 56.5029 23.6936 55.9676L14.7057 52.981C11.3246 51.854 8.56348 48.0222 8.56348 44.4439V40.7811C8.56348 38.5553 11.0429 37.2029 12.9025 38.4144L18.7065 42.1899C20.9324 43.6832 23.7499 44.4157 26.5675 44.4157C29.385 44.4157 32.2025 43.6832 34.4283 42.1899L40.1479 38.4426Z" fill="#292D32"/>
<path d="M49.0177 12.5732L32.1408 1.50033C29.0978 -0.50011 24.0827 -0.50011 21.0397 1.50033L4.07836 12.5732C-1.35945 16.0951 -1.35945 24.0687 4.07836 27.6188L8.58639 30.549L21.0397 38.6634C24.0827 40.6639 29.0978 40.6639 32.1408 38.6634L44.5097 30.549L48.3697 28.0132V36.6348C48.3697 37.79 49.3276 38.748 50.4828 38.748C51.638 38.748 52.596 37.79 52.596 36.6348V22.7726C53.723 19.138 52.5678 14.9117 49.0177 12.5732Z" fill="#292D32"/>
</svg>
