<svg width="60" height="60" viewBox="0 0 60 60" fill="none" xmlns="http://www.w3.org/2000/svg">
<path d="M21.0763 0C13.2313 0 6.85352 6.3778 6.85352 14.2228C6.85352 21.9181 12.872 28.1461 20.717 28.4156C20.9565 28.3857 21.1961 28.3857 21.3757 28.4156H21.5254H21.5853C29.2507 28.1461 35.2691 21.9181 35.2991 14.2228C35.2991 6.3778 28.9213 0 21.0763 0Z" fill="#292D32"/>
<path d="M36.2904 36.3771C27.9364 30.8077 14.3126 30.8077 5.89871 36.3771C2.09599 38.9222 0 42.3656 0 46.0486C0 49.7315 2.09599 53.145 5.86877 55.6602C10.0607 58.4748 15.5702 59.8821 21.0797 59.8821C26.589 59.8821 32.0985 58.4748 36.2904 55.6602C40.0632 53.1151 42.1592 49.7016 42.1592 45.9887C42.1293 42.3057 40.0632 38.8923 36.2904 36.3771Z" fill="#292D32"/>
<path d="M53.9813 15.9839C54.4604 21.7928 50.3283 26.8829 44.6092 27.5716C44.5793 27.5716 44.5793 27.5716 44.5494 27.5716H44.4595C44.2799 27.5716 44.1002 27.5716 43.9505 27.6315C41.0461 27.7812 38.3812 26.853 36.375 25.1462C39.4591 22.3917 41.2257 18.2596 40.8664 13.7681C40.6568 11.3428 39.8184 9.12703 38.5608 7.24064C39.6986 6.67173 41.0161 6.31242 42.3635 6.19264C48.2323 5.68362 53.4723 10.0553 53.9813 15.9839Z" fill="#292D32"/>
<path d="M59.9659 43.6877C59.7263 46.5921 57.8699 49.1073 54.7559 50.8141C51.7616 52.4609 47.9888 53.2394 44.246 53.1496C46.4018 51.2033 47.6594 48.778 47.899 46.2029C48.1984 42.49 46.4318 38.9268 42.8985 36.0822C40.8924 34.4953 38.5568 33.2377 36.0117 32.3095C42.6291 30.3931 50.9531 31.6807 56.0733 35.8128C58.8281 38.0285 60.2354 40.8132 59.9659 43.6877Z" fill="#292D32"/>
</svg>
