<svg width="45" height="64" viewBox="0 0 45 64" fill="none" xmlns="http://www.w3.org/2000/svg">
<path d="M35.0287 24.9229H9.41488C5.79084 24.9229 4.53164 22.4967 6.65079 19.5483L19.4576 1.61239C20.9625 -0.537463 23.4809 -0.537463 24.9858 1.61239L37.7928 19.5483C39.912 22.4967 38.6528 24.9229 35.0287 24.9229Z" fill="#292D32"/>
<path d="M39.3912 49.3031H5.05501C0.20248 49.3031 -1.45598 46.0783 1.40026 42.1471L13.6544 24.9176H30.7918L43.046 42.1471C45.9022 46.0783 44.2438 49.3031 39.3912 49.3031Z" fill="#292D32"/>
<path d="M24.5277 49.3075V61.5924C24.5277 62.8516 23.4835 63.8958 22.2243 63.8958C20.9651 63.8958 19.9209 62.8516 19.9209 61.5924V49.3075H24.5277Z" fill="#292D32"/>
</svg>
